<?xml version="1.0" standalone="no"?>
<!DOCTYPE svg PUBLIC "-//W3C//DTD SVG 20010904//EN"
 "http://www.w3.org/TR/2001/REC-SVG-20010904/DTD/svg10.dtd">
<svg version="1.0" xmlns="http://www.w3.org/2000/svg"
 width="682.000000pt" height="260.000000pt" viewBox="0 0 682.000000 260.000000"
 preserveAspectRatio="xMidYMid meet">

<g transform="translate(0.000000,260.000000) scale(0.100000,-0.100000)"
fill="#000000" stroke="none">
<path d="M2445 2399 c-159 -20 -354 -96 -474 -184 -116 -85 -231 -207 -285
-302 -16 -29 3 -10 34 33 24 34 35 42 41 32 6 -9 9 -5 9 14 0 20 12 35 53 64
69 49 76 57 52 49 -27 -9 56 68 120 111 60 41 65 41 65 9 0 -21 -12 -31 -80
-65 -44 -22 -80 -42 -80 -45 0 -3 31 11 70 30 80 40 87 41 93 18 4 -14 5 -13
6 4 1 17 14 26 66 43 57 19 215 50 255 50 12 0 15 -12 15 -50 l0 -49 -91 -45
c-50 -24 -110 -56 -133 -71 -47 -29 -60 -25 -81 26 -7 16 -15 28 -17 25 -2 -2
5 -23 17 -46 l22 -42 -29 -31 -28 -30 33 23 32 24 52 -50 52 -49 -42 47 c-23
26 -42 52 -42 57 0 14 72 62 155 103 111 56 107 56 162 -3 26 -28 49 -55 51
-60 2 -4 -18 -32 -44 -61 l-48 -53 55 53 55 52 55 -30 c29 -16 59 -30 64 -30
6 1 1 6 -10 12 -11 6 -37 22 -59 35 l-38 25 28 29 c15 16 45 41 66 55 l39 27
38 -21 c21 -12 43 -22 47 -22 5 1 -8 10 -28 21 -21 11 -38 23 -38 28 0 15 77
43 99 36 31 -10 24 -85 -8 -85 -13 0 -13 -2 -2 -9 11 -7 12 -17 2 -56 -7 -26
-10 -49 -8 -52 3 -2 10 17 16 42 6 25 19 49 27 52 11 4 12 8 4 13 -10 6 -10
16 0 44 6 20 15 36 19 36 7 0 51 -72 51 -83 0 -3 -12 -8 -27 -10 -26 -4 -26
-4 4 -6 24 -1 36 -8 48 -28 l15 -28 -6 27 c-5 23 -2 27 27 33 31 7 37 4 81
-46 27 -30 51 -64 54 -76 4 -13 11 -23 16 -23 6 0 17 -8 25 -17 13 -16 13 -16
4 4 -9 18 -6 26 20 52 17 17 35 31 41 31 6 0 47 -35 92 -77 l81 -77 -87 88
c-71 71 -88 95 -89 120 -1 23 -3 26 -6 9 -2 -13 -7 -23 -10 -23 -3 0 -36 19
-74 43 -71 43 -88 74 -39 70 l25 -3 -24 10 c-14 6 -39 28 -57 49 -18 21 -47
44 -64 51 -16 7 -30 19 -30 26 0 8 2 14 5 14 16 0 117 -57 163 -92 55 -43 68
-69 30 -62 -13 2 -8 -2 11 -9 18 -7 39 -21 46 -30 9 -13 14 -14 17 -6 7 20
127 -27 166 -64 18 -18 49 -55 69 -84 37 -54 59 -75 27 -25 -71 110 -180 220
-298 301 -189 131 -459 191 -711 160z m300 -20 c5 -5 -23 -9 -72 -9 -85 0
-113 5 -113 22 0 13 170 1 185 -13z m-211 -2 c17 -12 14 -15 -26 -30 -25 -10
-57 -31 -73 -47 -22 -23 -38 -30 -66 -30 -47 0 -179 -25 -242 -46 -55 -18 -62
-15 -53 20 4 18 22 32 64 51 168 79 350 116 396 82z m121 -53 l25 -16 -24 -19
c-25 -20 -102 -25 -179 -13 -31 6 -35 9 -25 21 15 19 66 45 103 53 32 7 61 0
100 -26z m193 11 c53 -16 77 -44 25 -29 -16 4 -63 8 -106 10 -71 2 -127 20
-127 41 0 11 153 -5 208 -22z m69 -1 c-3 -3 -12 -4 -19 -1 -8 3 -5 6 6 6 11 1
17 -2 13 -5z m137 -56 c93 -46 236 -148 236 -168 0 -5 -26 0 -57 11 -42 14
-65 29 -83 54 -28 39 -85 82 -156 120 -66 35 -14 20 60 -17z m-187 8 c12 -12
-11 -26 -43 -26 -39 0 -92 29 -74 40 11 7 108 -5 117 -14z m-100 -32 c-8 -8
-107 8 -107 17 0 23 36 26 73 7 21 -10 37 -22 34 -24z m222 -29 c14 -13 22
-27 19 -30 -8 -9 -89 17 -117 37 -20 14 -22 20 -12 32 12 14 17 14 49 0 21 -8
48 -26 61 -39z m-375 29 c30 -11 16 -33 -26 -44 -24 -5 -67 -17 -96 -26 -29
-8 -57 -12 -62 -9 -6 3 -10 24 -10 46 l0 39 89 0 c49 0 96 -3 105 -6z m96 -13
c23 -7 22 -8 -14 -14 -41 -7 -60 -2 -51 14 7 10 28 10 65 0z m30 -31 c0 -5
-11 -17 -25 -26 -20 -13 -28 -14 -40 -4 -23 19 -18 28 18 33 17 2 35 5 40 5 4
1 7 -2 7 -8z m-87 -28 c16 -18 13 -22 -48 -76 -54 -47 -68 -55 -83 -47 -23 12
-82 78 -82 91 0 8 59 28 125 43 44 10 73 6 88 -11z m370 -9 c4 -2 7 -8 7 -14
0 -16 -27 -10 -51 11 l-24 20 30 -6 c17 -4 33 -9 38 -11z m-79 -37 c30 -25 28
-46 -4 -46 -13 0 -27 14 -40 40 -11 21 -20 42 -20 45 0 8 29 -10 64 -39z m41
17 c38 -18 44 -30 19 -40 -10 -4 -27 6 -47 26 -35 35 -26 40 28 14z m122 -72
c71 -46 77 -54 63 -81 -25 -47 -43 -42 -104 26 -55 62 -66 94 -33 94 8 0 41
-18 74 -39z"/>
<path d="M2071 2124 c0 -11 3 -14 6 -6 3 7 2 16 -1 19 -3 4 -6 -2 -5 -13z"/>
<path d="M1258 2075 c-27 -23 -40 -53 -17 -39 7 4 10 -1 7 -12 -3 -16 -14 -19
-81 -22 -67 -2 -77 -5 -77 -21 0 -53 66 -148 122 -177 38 -20 128 -20 166 0
41 21 89 71 111 115 22 43 34 119 25 155 l-6 26 -112 0 c-103 -1 -113 -2 -138
-25z"/>
<path d="M2765 1947 c-9 -32 -5 -40 11 -23 6 6 8 21 4 31 -7 18 -8 17 -15 -8z"/>
<path d="M1771 1924 c0 -11 3 -14 6 -6 3 7 2 16 -1 19 -3 4 -6 -2 -5 -13z"/>
<path d="M1990 1885 c-24 -25 -42 -45 -39 -45 3 0 25 20 49 45 24 25 42 45 39
45 -3 0 -25 -20 -49 -45z"/>
<path d="M2940 1920 l-35 -7 43 -2 c27 0 41 3 37 9 -3 6 -7 9 -8 9 -1 -1 -18
-5 -37 -9z"/>
<path d="M2409 1903 c-13 -16 -12 -17 4 -4 9 7 17 15 17 17 0 8 -8 3 -21 -13z"/>
<path d="M2379 1863 c-13 -16 -12 -17 4 -4 9 7 17 15 17 17 0 8 -8 3 -21 -13z"/>
<path d="M2324 1831 c4 -6 22 -18 39 -27 30 -14 31 -14 12 1 -30 25 -59 39
-51 26z"/>
<path d="M3494 1808 c-14 -17 -15 -20 -2 -9 9 7 22 10 27 6 7 -3 8 0 5 9 -8
20 -7 20 -30 -6z"/>
<path d="M4070 1678 c-1 -51 -5 -219 -10 -373 -9 -288 -23 -389 -57 -427 -39
-43 -105 -5 -122 69 -6 27 -16 211 -21 411 -5 200 -12 367 -15 373 -4 5 -11 9
-17 9 -21 0 3 -711 28 -833 12 -59 92 -102 140 -76 34 18 72 101 83 184 6 39
15 210 21 380 13 405 14 375 -10 375 -19 0 -20 -7 -20 -92z"/>
<path d="M4296 1730 c-35 -42 -49 -102 -44 -188 5 -67 12 -86 78 -219 69 -135
74 -150 78 -222 5 -93 -17 -180 -54 -218 -22 -22 -31 -24 -65 -19 -35 6 -40 4
-37 -11 2 -13 14 -19 45 -21 34 -3 47 2 76 28 49 43 67 102 66 219 -1 111 -11
143 -87 284 -69 125 -84 200 -59 280 21 65 30 75 82 79 37 3 38 4 21 21 -28
27 -70 22 -100 -13z"/>
<path d="M4621 1741 c-17 -17 -19 -43 -25 -337 -3 -176 -10 -375 -14 -442 -6
-107 -5 -125 8 -132 38 -20 42 -1 43 231 l2 224 45 5 c59 7 63 33 5 40 -49 6
-50 9 -40 208 8 161 15 179 69 167 55 -13 80 -11 84 7 3 18 -29 30 -115 42
-34 5 -47 2 -62 -13z"/>
<path d="M1101 1182 c-132 -454 -150 -637 -78 -826 9 -26 16 -4 58 199 55 262
81 353 109 386 20 24 20 24 35 5 8 -11 38 -90 65 -175 61 -187 115 -292 196
-380 80 -86 176 -142 131 -76 -29 42 -97 227 -140 380 -54 190 -59 214 -92
415 -15 85 -28 162 -31 170 -3 12 -25 15 -111 17 l-108 2 -34 -117z"/>
<path d="M1473 1286 c4 -12 173 -83 337 -141 260 -92 574 -128 800 -90 127 20
262 58 292 80 l23 17 -29 -7 c-66 -15 -295 -23 -407 -15 -214 17 -310 37 -538
112 l-156 52 -163 1 c-104 1 -161 -2 -159 -9z"/>
<path d="M4673 405 c0 -33 2 -45 4 -27 2 18 2 45 0 60 -2 15 -4 0 -4 -33z"/>
<path d="M4723 395 c0 -27 2 -38 4 -22 2 15 2 37 0 50 -2 12 -4 0 -4 -28z"/>
<path d="M5332 365 c0 -16 2 -22 5 -12 2 9 2 23 0 30 -3 6 -5 -1 -5 -18z"/>
<path d="M4441 354 c0 -11 3 -14 6 -6 3 7 2 16 -1 19 -3 4 -6 -2 -5 -13z"/>
</g>
</svg>
