<?xml version="1.0" standalone="no"?>
<!DOCTYPE svg PUBLIC "-//W3C//DTD SVG 20010904//EN"
 "http://www.w3.org/TR/2001/REC-SVG-20010904/DTD/svg10.dtd">
<svg version="1.0" xmlns="http://www.w3.org/2000/svg"
 width="318" height="88" viewBox="100 90 1400 120"  fill="none"
 preserveAspectRatio="xMidYMid meet">

<g transform="translate(0.000000,300.000000) scale(0.100000,-0.100000)"
fill="#000000" stroke="none">
<path d="M4441 2764 c-1 -68 15 -94 61 -94 41 0 58 29 57 96 l-2 59 -6 -56
c-6 -60 -23 -89 -51 -89 -28 0 -45 29 -51 89 l-6 56 -2 -61z"/>
<path d="M4780 2745 c0 -43 4 -75 10 -75 6 0 10 32 10 75 0 43 -4 75 -10 75
-6 0 -10 -32 -10 -75z"/>
<path d="M5763 2745 c0 -44 2 -63 4 -43 8 70 60 71 73 2 l8 -39 1 42 c1 47
-19 66 -57 57 -17 -5 -21 -1 -25 28 -2 18 -4 -3 -4 -47z"/>
<path d="M6397 2813 c-4 -3 -6 -38 -5 -77 1 -48 3 -57 5 -28 3 28 9 42 19 42
8 0 14 5 14 10 0 6 -7 10 -15 10 -23 0 -18 30 8 40 21 8 21 9 1 9 -11 1 -24
-2 -27 -6z"/>
<path d="M6910 2789 c0 -25 -3 -30 -16 -25 -25 9 -64 -20 -64 -48 0 -31 21
-47 59 -44 l31 2 0 73 c0 40 -2 73 -5 73 -3 0 -5 -14 -5 -31z m-2 -73 c-4 -38
-40 -49 -58 -17 -8 17 -7 24 10 41 28 28 52 16 48 -24z"/>
<path d="M517 2803 c-4 -3 -7 -28 -7 -55 0 -43 2 -48 23 -48 12 -1 832 -1
1822 0 990 0 1824 0 1853 0 l52 0 0 49 c0 35 -4 51 -16 55 -22 8 -3719 8
-3727 -1z"/>
<path d="M4650 2760 c0 -5 5 -10 10 -10 6 0 11 -19 12 -42 l1 -43 4 37 c3 24
11 42 23 48 22 12 31 2 41 -50 l7 -35 1 42 c1 45 -22 70 -49 53 -8 -5 -22 -4
-32 1 -12 6 -18 6 -18 -1z"/>
<path d="M4831 2746 c-23 -24 -23 -25 -5 -50 26 -35 37 -33 16 3 -16 28 -15
31 2 50 27 29 14 26 -13 -3z"/>
<path d="M4933 2756 c20 -15 23 -36 5 -36 -10 0 -9 -3 1 -9 16 -10 6 -31 -14
-31 -20 0 -30 21 -14 31 11 7 10 9 -4 9 -13 0 -18 -6 -15 -22 2 -18 10 -23 36
-24 31 -1 32 0 32 41 0 30 -5 45 -16 49 -25 10 -30 6 -11 -8z"/>
<path d="M5123 2763 c-22 -8 -14 -39 12 -51 14 -6 25 -17 25 -23 0 -7 -10 -9
-25 -7 -14 3 -25 1 -25 -4 0 -5 12 -8 27 -6 38 4 42 34 8 50 -31 14 -27 34 6
30 19 -2 21 0 9 8 -16 11 -19 11 -37 3z"/>
<path d="M5268 2759 c-26 -14 -22 -26 12 -44 32 -17 31 -40 -1 -32 -11 3 -19
1 -19 -5 0 -5 12 -8 27 -6 38 4 42 34 8 50 -27 12 -29 34 -2 32 9 -1 14 2 11
7 -7 11 -15 11 -36 -2z"/>
<path d="M5368 2759 c-21 -12 -24 -59 -6 -77 14 -14 68 -16 68 -3 0 4 -10 6
-23 4 -14 -3 -29 2 -36 11 -12 14 -9 16 28 16 35 0 41 3 41 20 0 13 -10 24
-26 30 -30 12 -25 12 -46 -1z m57 -30 c-8 -12 -65 -12 -65 1 0 5 8 13 17 19
20 11 57 -4 48 -20z"/>
<path d="M5480 2759 c-12 -8 -11 -9 6 -4 28 7 55 -22 33 -36 -11 -7 -11 -9 0
-9 7 0 11 -6 8 -15 -4 -8 -2 -17 3 -20 14 -9 12 69 -2 83 -15 15 -28 15 -48 1z"/>
<path d="M5593 2763 c-20 -4 -23 -11 -23 -49 0 -24 5 -44 10 -44 6 0 10 16 10
36 0 23 6 42 18 50 9 7 15 13 12 12 -3 0 -15 -3 -27 -5z"/>
<path d="M5668 2758 c-24 -20 -28 -44 -12 -67 15 -21 58 -29 68 -12 4 5 -3 7
-14 4 -41 -11 -69 45 -34 65 9 5 26 7 38 5 17 -4 18 -3 6 6 -20 14 -33 14 -52
-1z"/>
<path d="M5893 2720 c0 -30 2 -43 4 -27 2 15 2 39 0 55 -2 15 -4 2 -4 -28z"/>
<path d="M5952 2716 l1 -51 4 43 c4 40 6 43 31 40 23 -3 28 -9 33 -43 l6 -40
2 42 c1 46 -6 54 -50 57 -29 2 -29 2 -27 -48z"/>
<path d="M6140 2762 c-8 -4 -15 -16 -15 -27 0 -13 -7 -20 -20 -20 -14 0 -20 6
-19 23 0 12 -3 22 -8 22 -12 0 -10 -48 3 -55 18 -12 59 4 59 23 0 10 5 23 12
30 13 13 11 14 -12 4z"/>
<path d="M6240 2759 c-12 -8 -11 -9 6 -4 26 7 55 -22 35 -35 -11 -6 -11 -8 0
-12 19 -6 1 -28 -23 -28 -15 0 -19 5 -15 20 6 22 -8 28 -16 7 -9 -23 8 -38 41
-35 30 2 32 5 32 38 0 52 -26 73 -60 49z"/>
<path d="M6462 2715 c1 -41 2 -43 5 -15 5 38 20 63 34 54 5 -3 9 -1 9 4 0 6
-11 9 -25 8 -23 -1 -25 -4 -23 -51z"/>
<path d="M6543 2720 c0 -30 2 -43 4 -27 2 15 2 39 0 55 -2 15 -4 2 -4 -28z"/>
<path d="M6618 2763 c-22 -5 -35 -50 -21 -72 6 -9 25 -17 44 -18 33 -1 33 -1
5 5 -44 10 -45 32 -2 32 29 0 36 4 36 20 0 16 -30 43 -42 39 -2 -1 -11 -3 -20
-6z m52 -33 c0 -6 -13 -10 -30 -10 -30 0 -43 24 -17 33 15 5 47 -10 47 -23z"/>
<path d="M6760 2761 c0 -5 6 -11 14 -14 8 -3 17 -23 19 -44 l4 -38 1 42 c2 33
-2 45 -18 53 -11 6 -20 7 -20 1z"/>
<path d="M4600 2715 c0 -25 5 -45 10 -45 6 0 10 18 10 39 0 22 5 42 13 44 6 3
2 6 -10 6 -21 1 -23 -4 -23 -44z"/>
<path d="M5050 2715 c0 -25 5 -45 10 -45 6 0 10 20 10 45 0 25 -4 45 -10 45
-5 0 -10 -20 -10 -45z"/>
<path d="M6710 2715 c0 -25 5 -45 10 -45 6 0 10 18 10 39 0 22 5 42 13 44 6 3
2 6 -10 6 -21 1 -23 -4 -23 -44z"/>
<path d="M5468 2708 c-8 -22 3 -38 25 -37 19 1 19 2 4 6 -13 3 -17 11 -14 24
6 21 -8 27 -15 7z"/>
<path d="M6076 2678 c-17 -9 -22 -48 -7 -48 5 0 7 9 4 21 -5 18 -2 20 27 17
43 -4 49 -23 13 -36 -15 -6 -21 -11 -12 -11 24 -1 53 24 46 41 -7 19 -49 28
-71 16z"/>
<path d="M3549 2248 c-48 -26 -71 -46 -103 -91 l-41 -58 -3 -145 c-3 -136 -2
-147 21 -198 45 -97 132 -167 264 -210 63 -21 134 -82 162 -139 19 -40 21 -61
21 -281 0 -213 -2 -241 -19 -274 -34 -67 -95 -102 -176 -102 -92 0 -185 81
-185 160 0 56 -54 92 -88 58 -19 -19 -14 -98 9 -148 45 -101 132 -160 245
-168 100 -6 160 15 228 81 81 80 86 102 86 402 l0 252 -31 61 c-45 91 -117
152 -234 197 -103 40 -165 89 -191 150 -9 23 -14 73 -14 148 0 106 2 116 27
155 33 51 91 82 153 82 90 0 180 -78 180 -156 0 -38 22 -64 54 -64 32 0 46 19
46 61 0 139 -130 259 -281 259 -56 0 -77 -5 -130 -32z"/>
<path d="M2636 2244 c-14 -14 -16 -90 -16 -692 0 -412 4 -691 10 -712 31 -111
115 -179 231 -188 99 -7 152 11 215 72 87 85 84 55 84 831 0 638 -1 673 -18
688 -23 21 -46 22 -66 1 -14 -14 -16 -70 -16 -465 l0 -449 -170 0 -170 0 0
448 c0 422 -1 450 -18 465 -23 21 -46 22 -66 1z m422 -1056 l-3 -43 -167 -3
-168 -2 0 45 0 45 171 0 170 0 -3 -42z m0 -236 c-3 -77 -7 -94 -31 -131 -36
-54 -83 -75 -155 -69 -62 5 -98 28 -129 84 -18 32 -23 55 -23 122 l0 82 171 0
171 0 -4 -88z"/>
<path d="M4317 2246 c-48 -18 -74 -41 -98 -88 -18 -35 -19 -70 -19 -747 0
-632 2 -711 16 -725 20 -20 48 -20 68 0 14 13 16 61 16 375 l0 359 139 0 c77
0 151 4 164 9 30 12 42 43 27 71 -10 19 -20 20 -170 20 l-160 0 0 55 0 55 153
0 c136 0 156 2 170 18 22 24 21 45 -1 65 -16 14 -43 17 -170 17 l-152 0 0 188
c1 131 4 192 13 203 26 34 54 39 229 39 186 0 198 3 198 50 0 14 -5 31 -12 38
-18 18 -360 16 -411 -2z"/>
<path d="M510 230 l0 -60 3190 0 3190 0 0 60 0 60 -3190 0 -3190 0 0 -60z"/>
</g>
</svg>
